<svg width="18" height="18" viewBox="0 0 18 18" fill="none" xmlns="http://www.w3.org/2000/svg">
<path d="M6.33332 5.55556V4.66667C6.33332 3.95942 6.61427 3.28115 7.11437 2.78105C7.61447 2.28095 8.29274 2 8.99999 2C9.70723 2 10.3855 2.28095 10.8856 2.78105C11.3857 3.28115 11.6667 3.95942 11.6667 4.66667V5.55556" stroke="#2D3047" stroke-linecap="round" stroke-linejoin="round"/>
<path d="M5.44445 5.55566H12.5556C13.085 6.34907 13.3919 7.26995 13.4444 8.22233V10.889C13.4444 12.0677 12.9762 13.1982 12.1427 14.0317C11.3092 14.8652 10.1787 15.3334 9 15.3334C7.82126 15.3334 6.6908 14.8652 5.85731 14.0317C5.02381 13.1982 4.55556 12.0677 4.55556 10.889V8.22233C4.60807 7.26995 4.91503 6.34907 5.44445 5.55566" stroke="#2D3047" stroke-linecap="round" stroke-linejoin="round"/>
<path d="M1 9.11084H4.55556" stroke="#2D3047" stroke-linecap="round" stroke-linejoin="round"/>
<path d="M13.4444 9.11084H17" stroke="#2D3047" stroke-linecap="round" stroke-linejoin="round"/>
<path d="M9 15.3333V10" stroke="#2D3047" stroke-linecap="round" stroke-linejoin="round"/>
<path d="M1.88888 14.4443L4.86666 12.6665" stroke="#2D3047" stroke-linecap="round" stroke-linejoin="round"/>
<path d="M16.1111 14.4443L13.1334 12.6665" stroke="#2D3047" stroke-linecap="round" stroke-linejoin="round"/>
<path d="M1.88888 3.77783L5.22221 5.91117" stroke="#2D3047" stroke-linecap="round" stroke-linejoin="round"/>
<path d="M16.1111 3.77783L12.7778 5.91117" stroke="#2D3047" stroke-linecap="round" stroke-linejoin="round"/>
</svg>
