<svg width="16" height="16" viewBox="0 0 16 16" fill="none" xmlns="http://www.w3.org/2000/svg">
<g clip-path="url(#clip0)">
<path fill-rule="evenodd" clip-rule="evenodd" d="M3.41776 2.4141C3.52245 2.30672 3.66035 2.25 3.8 2.25H6.64299L7.72117 3.90874C7.85952 4.12159 8.09614 4.25 8.35 4.25H14.2C14.3397 4.25 14.4775 4.30672 14.5822 4.4141C14.6876 4.52212 14.75 4.67258 14.75 4.83333V8.375L15.4591 11.5661C15.7367 12.8152 14.7863 14 13.5068 14H3.60434C2.99404 14 2.43705 13.724 2.06653 13.2789C2.14529 13.4057 2.23799 13.5246 2.34376 13.6331C2.72666 14.0258 3.25009 14.25 3.8 14.25H14.2C14.7499 14.25 15.2733 14.0258 15.6562 13.6331C16.0385 13.241 16.25 12.7132 16.25 12.1667V4.83333C16.25 4.28684 16.0385 3.75902 15.6562 3.36695C15.2733 2.97423 14.7499 2.75 14.2 2.75H8.75701L7.67883 1.09126C7.54048 0.878414 7.30386 0.75 7.05 0.75H3.8C3.25009 0.75 2.72666 0.974229 2.34376 1.36695C1.96149 1.75902 1.75 2.28684 1.75 2.83333V5.14194C1.9784 5.05061 2.22879 5 2.49323 5H3.25V2.83333C3.25 2.67258 3.31244 2.52212 3.41776 2.4141Z" fill="#2D3047"/>
<path d="M1.273 7.27116C1.09952 6.49052 1.69355 5.75 2.49323 5.75H12.3957C12.9815 5.75 13.4888 6.15692 13.6159 6.72884L14.727 11.7288C14.9005 12.5095 14.3065 13.25 13.5068 13.25H3.60434C3.01847 13.25 2.5112 12.8431 2.38411 12.2712L1.273 7.27116Z" stroke="#2D3047" stroke-width="1.5"/>
</g>
<defs>
<clipPath id="clip0">
<rect width="16" height="16" fill="white"/>
</clipPath>
</defs>
</svg>
