<svg width="16" height="16" viewBox="0 0 16 16" fill="none" xmlns="http://www.w3.org/2000/svg">
<path fill-rule="evenodd" clip-rule="evenodd" d="M3.23876 2.23957C3.38982 2.08464 3.59197 2 3.8 2H6.77866L7.93078 3.77249C8.02301 3.91439 8.18076 4 8.35 4H14.2C14.408 4 14.6102 4.08464 14.7612 4.23957C14.9127 4.39494 15 4.60829 15 4.83333V9.5L15.4591 11.5661C15.7367 12.8152 14.7863 14 13.5068 14H14.2C14.6815 14 15.1407 13.8037 15.4772 13.4585C15.8134 13.1138 16 12.6489 16 12.1667V4.83333C16 4.35113 15.8134 3.88621 15.4772 3.54147C15.1407 3.19631 14.6815 3 14.2 3H8.62134L7.46922 1.22751C7.37699 1.08561 7.21924 1 7.05 1H3.8C3.31847 1 2.85929 1.19631 2.52276 1.54147C2.18665 1.88621 2 2.35113 2 2.83333V5.06082C2.1571 5.02116 2.32223 5 2.49323 5H3V2.83333C3 2.60829 3.08728 2.39494 3.23876 2.23957Z" fill="#2D3047"/>
<path d="M2.49323 5.5H12.3957C13.0987 5.5 13.7074 5.9883 13.8599 6.6746L14.971 11.6746C15.1792 12.6114 14.4664 13.5 13.5068 13.5H3.60434C2.9013 13.5 2.29258 13.0117 2.14006 12.3254L1.02895 7.3254C0.82078 6.38863 1.53361 5.5 2.49323 5.5Z" stroke="#2D3047"/>
</svg>
