<svg width="18" height="18" viewBox="0 0 18 18" fill="none" xmlns="http://www.w3.org/2000/svg">
<path d="M9.38889 14.5059L12.1111 15.9062C12.2293 15.9676 12.3635 16 12.5 16C12.6365 16 12.7707 15.9676 12.8889 15.9062L15.6111 14.5059C15.7292 14.4445 15.8273 14.3563 15.8956 14.25C15.9639 14.1437 15.9999 14.0231 16 13.9003L16 10.2247C15.9999 10.1019 15.9639 9.98135 15.8956 9.87505C15.8273 9.76875 15.7292 9.68048 15.6111 9.61909L12.8889 8.2188C12.7707 8.15735 12.6365 8.125 12.5 8.125C12.3635 8.125 12.2293 8.15735 12.1111 8.2188L9.38889 9.61909" stroke="#2D3047" stroke-linecap="round" stroke-linejoin="round"/>
<path d="M5.5 7.77539L5.5 4.09982C5.50014 3.97704 5.53614 3.85645 5.6044 3.75015C5.67266 3.64385 5.77077 3.55558 5.88889 3.49419L8.61111 2.0939C8.72935 2.03245 8.86347 2.0001 9 2.0001C9.13653 2.0001 9.27065 2.03245 9.38889 2.0939L12.1111 3.49419C12.2292 3.55558 12.3273 3.64385 12.3956 3.75015C12.4639 3.85645 12.4999 3.97704 12.5 4.09982L12.5 7.77539" stroke="#2D3047" stroke-linecap="round" stroke-linejoin="round"/>
<path d="M2 10.2247L2 13.9003C2.00014 14.0231 2.03614 14.1437 2.1044 14.25C2.17266 14.3563 2.27077 14.4445 2.38889 14.5059L5.11111 15.9062C5.22935 15.9676 5.36347 16 5.5 16C5.63653 16 5.77065 15.9676 5.88889 15.9062L8.61111 14.5059C8.72923 14.4445 8.82734 14.3563 8.8956 14.25C8.96386 14.1437 8.99986 14.0231 9 13.9003L9 10.2247C8.99986 10.1019 8.96386 9.98135 8.8956 9.87505C8.82734 9.76875 8.72923 9.68048 8.61111 9.61909L5.88889 8.2188C5.77065 8.15735 5.63653 8.125 5.5 8.125C5.36347 8.125 5.22935 8.15735 5.11111 8.2188L2.38889 9.61909C2.27077 9.68048 2.17266 9.76875 2.1044 9.87505C2.03614 9.98135 2.00014 10.1019 2 10.2247Z" stroke="#2D3047" stroke-linecap="round" stroke-linejoin="round"/>
</svg>
