<svg width="16" height="20" viewBox="0 0 16 20" fill="none" xmlns="http://www.w3.org/2000/svg">
<path d="M13.9489 18.6001V15.7136C13.9489 14.7984 13.5852 13.8832 12.9305 13.3904L9.43865 10.6448V9.23681L12.9305 6.49121C13.5125 6.06881 13.8762 5.29441 13.9489 4.44961C13.9489 4.30881 13.9489 4.23841 13.9489 4.16801V1.14081M2.52771 18.6001V15.7136C2.52771 14.7984 2.89144 13.8832 3.54616 13.3904L7.03801 10.6448V9.30722L3.54616 6.56161C2.96419 6.06881 2.60046 5.29441 2.52771 4.52001C2.52771 4.44961 2.52771 4.37921 2.52771 4.23841V1.14081" stroke="#4132C8" stroke-width="1.5" stroke-miterlimit="10" stroke-linecap="round" stroke-linejoin="round"/>
<path d="M13.9489 15.7136C13.9489 14.7984 13.5852 13.8832 12.9305 13.3904L9.43865 10.6448M2.52771 15.7136C2.52771 14.7984 2.89144 13.8832 3.54616 13.3904L7.03801 10.6448" stroke="#4132C8" stroke-width="1.5" stroke-miterlimit="10" stroke-linecap="round" stroke-linejoin="round"/>
<path d="M13.9489 15.7136C13.9489 14.7984 13.5852 13.8832 12.9305 13.3904L9.43865 10.6448M2.52771 15.7136C2.52771 14.7984 2.89144 13.8832 3.54616 13.3904L7.03801 10.6448" stroke="#4132C8" stroke-width="1.5" stroke-miterlimit="10" stroke-linecap="round" stroke-linejoin="round"/>
<path d="M1.36377 1.00006H15.1856" stroke="#4132C8" stroke-width="1.5" stroke-linecap="round" stroke-linejoin="round"/>
<path d="M1 18.6H14.8219" stroke="#4132C8" stroke-width="1.5" stroke-linecap="round" stroke-linejoin="round"/>
</svg>
