<svg width="22" height="22" viewBox="0 0 22 22" fill="none" xmlns="http://www.w3.org/2000/svg">
<path fill-rule="evenodd" clip-rule="evenodd" d="M11 21C16.5228 21 21 16.5228 21 11C21 5.47715 16.5228 1 11 1C5.47715 1 1 5.47715 1 11C1 16.5228 5.47715 21 11 21Z" stroke="#4132C8" stroke-width="1.5"/>
<path fill-rule="evenodd" clip-rule="evenodd" d="M10.9635 11.0363C12.4095 11.0363 13.5817 9.86409 13.5817 8.41811C13.5817 6.97213 12.4095 5.79993 10.9635 5.79993C9.51754 5.79993 8.34534 6.97213 8.34534 8.41811C8.34534 9.86409 9.51754 11.0363 10.9635 11.0363Z" stroke="#4132C8" stroke-width="1.5" stroke-linecap="round"/>
<path d="M15.3272 15.4C15.3272 12.99 13.3736 11.0364 10.9636 11.0364C8.55364 11.0364 6.59998 12.99 6.59998 15.4" stroke="#4132C8" stroke-width="1.5" stroke-linecap="round"/>
</svg>
