<svg width="95" height="22" viewBox="0 0 95 22" fill="none" xmlns="http://www.w3.org/2000/svg">
<path d="M30.8079 1.32471C34.6481 1.32471 35.9995 3.22999 35.9995 6.19126C35.9995 9.15251 34.6247 11.0572 30.8079 11.0572H26.9221V16.2451H24.4302V3.94134C24.4302 2.10534 25.2357 1.32471 27.1324 1.32471H30.8079ZM27.8473 3.59732C27.207 3.59732 26.9221 3.84996 26.9221 4.46933V8.784H30.8079C32.918 8.784 33.5108 7.93468 33.5108 6.19006C33.5108 4.46813 32.894 3.59612 30.8079 3.59612L27.8473 3.59732Z" fill="#2D3047"/>
<path d="M46.5732 12.8252C46.5732 15.3499 45.0312 16.4979 41.5235 16.4979C38.4394 16.4979 36.7124 15.3959 36.7124 12.9626C36.7124 10.3944 38.5856 9.49846 41.5487 9.49846H44.156V8.37201C44.156 6.94872 43.042 6.62739 41.3588 6.62739C39.9605 6.62739 38.7516 6.78805 37.9929 7.06339V4.99744C38.8465 4.7221 39.9364 4.60742 41.2169 4.60742C44.4169 4.60742 46.5745 5.50333 46.5745 8.37022L46.5732 12.8252ZM44.1547 11.2873H41.5457C39.9333 11.2873 39.1512 11.746 39.1512 12.9172C39.1512 14.2712 40.2652 14.5006 41.4741 14.5006C43.0161 14.5006 44.1529 14.2712 44.1529 12.7088L44.1547 11.2873Z" fill="#2D3047"/>
<path d="M51.335 16.2452H48.8937V9.06066C48.8937 6.23677 50.5054 4.60742 54.0612 4.60742C57.762 4.60742 59.2053 6.19138 59.2053 9.06066V16.2452H56.7634V9.06066C56.7634 7.61467 56.3132 6.81075 54.0612 6.81075C51.8327 6.81075 51.335 7.61467 51.335 9.06066V16.2452Z" fill="#2D3047"/>
<path d="M71.0602 12.7178C71.0602 15.2425 69.5182 16.3904 66.011 16.3904C62.9271 16.3904 61.2 15.2885 61.2 12.8552C61.2 10.2869 63.0726 9.39104 66.0357 9.39104H68.6435V8.26459C68.6435 6.8413 67.5296 6.51996 65.8464 6.51996C64.4475 6.51996 63.2385 6.68063 62.4799 6.95597V4.89002C63.3335 4.61468 64.424 4.5 65.7039 4.5C68.9045 4.5 71.0614 5.3959 71.0614 8.2628L71.0602 12.7178ZM68.6423 11.1799H66.0345C64.4228 11.1799 63.6407 11.6386 63.6407 12.8098C63.6407 14.1638 64.7546 14.3932 65.9636 14.3932C67.5056 14.3932 68.6423 14.1638 68.6423 12.6014V11.1799Z" fill="#2D3047"/>
<path d="M77.4622 13.2094C77.6996 14.1734 78.0315 14.334 78.742 14.334C79.2638 14.334 79.6197 14.1734 79.8566 13.2094L81.8717 4.7879H84.3605L81.5399 16.1707C80.7337 19.4556 78.9561 21.3125 75.613 21.2433L75.1152 19.2006C77.5572 19.2466 78.5292 17.9607 79.0504 16.1933C78.7901 16.308 78.3633 16.354 77.9599 16.354C76.0398 16.354 75.5421 15.1595 75.0918 13.416L72.8398 4.78491H75.3286L77.4622 13.2094Z" fill="#2D3047"/>
<path d="M94.9988 12.8252C94.9988 15.3499 93.4568 16.4979 89.949 16.4979C86.865 16.4979 85.138 15.3959 85.138 12.9626C85.138 10.3944 87.0106 9.49846 89.9743 9.49846H92.5815V8.37201C92.5815 6.94872 91.4676 6.62739 89.7843 6.62739C88.3861 6.62739 87.1765 6.78805 86.4185 7.06339V4.99744C87.2715 4.7221 88.362 4.60742 89.6425 4.60742C92.8424 4.60742 95 5.50333 95 8.37022L94.9988 12.8252ZM92.5803 11.2873H89.9731C88.3608 11.2873 87.5787 11.746 87.5787 12.9172C87.5787 14.2712 88.6926 14.5006 89.9015 14.5006C91.4435 14.5006 92.5803 14.2712 92.5803 12.7088V11.2873Z" fill="#2D3047"/>
<path d="M8.30091 0.754883C6.65914 0.754883 5.05425 1.22631 3.68917 2.10954C2.3241 2.99277 1.26015 4.24814 0.631872 5.7169C0.00359658 7.18566 -0.160789 8.80185 0.159503 10.3611C0.479796 11.9203 1.27038 13.3525 2.43128 14.4767C3.59218 15.6008 5.07126 16.3664 6.68148 16.6765C8.2917 16.9867 9.96073 16.8275 11.4775 16.2191C12.9943 15.6107 14.2907 14.5805 15.2029 13.2586C16.115 11.9368 16.6018 10.3827 16.6018 8.79293C16.6018 6.66111 15.7273 4.6166 14.1705 3.10917C12.6138 1.60175 10.5024 0.754883 8.30091 0.754883ZM8.2565 14.8564C7.0145 14.8564 5.8004 14.4998 4.76771 13.8316C3.73503 13.1634 2.93015 12.2137 2.45486 11.1026C1.97957 9.99151 1.85521 8.76886 2.09751 7.5893C2.33981 6.40975 2.93789 5.32625 3.81612 4.47584C4.69434 3.62542 5.81327 3.04628 7.0314 2.81165C8.24953 2.57702 9.51216 2.69744 10.6596 3.15769C11.8071 3.61793 12.7878 4.39732 13.4778 5.3973C14.1679 6.39728 14.5361 7.57294 14.5361 8.77561C14.5361 9.57415 14.3737 10.3649 14.0581 11.1026C13.7426 11.8404 13.28 12.5107 12.6969 13.0754C12.1138 13.64 11.4215 14.0879 10.6596 14.3935C9.89773 14.6991 9.08115 14.8564 8.2565 14.8564Z" fill="#26CAD3"/>
</svg>
