<svg width="30" height="30" viewBox="0 0 30 30" fill="none" xmlns="http://www.w3.org/2000/svg">
<path d="M6.24999 13.75C6.24999 11.4294 7.17186 9.20376 8.81281 7.56282C10.4537 5.92187 12.6793 5 15 5C17.3206 5 19.5462 5.92187 21.1872 7.56282C22.8281 9.20376 23.75 11.4294 23.75 13.75V22.5C23.8091 22.9717 23.7155 23.45 23.483 23.8647C23.2505 24.2794 22.8913 24.6087 22.458 24.8044C22.0247 25.0001 21.5402 25.0518 21.0753 24.9521C20.6105 24.8523 20.1898 24.6062 19.875 24.25C19.6821 24.0032 19.4355 23.8036 19.1539 23.6663C18.8724 23.529 18.5632 23.4576 18.25 23.4576C17.9367 23.4576 17.6276 23.529 17.346 23.6663C17.0645 23.8036 16.8179 24.0032 16.625 24.25C16.4321 24.4968 16.1855 24.6964 15.9039 24.8337C15.6224 24.971 15.3132 25.0423 15 25.0423C14.6867 25.0423 14.3776 24.971 14.096 24.8337C13.8145 24.6964 13.5679 24.4968 13.375 24.25C13.1821 24.0032 12.9355 23.8036 12.6539 23.6663C12.3724 23.529 12.0632 23.4576 11.75 23.4576C11.4367 23.4576 11.1276 23.529 10.846 23.6663C10.5645 23.8036 10.3179 24.0032 10.125 24.25C9.81016 24.6062 9.3895 24.8523 8.92466 24.9521C8.45982 25.0518 7.97524 25.0001 7.54195 24.8044C7.10866 24.6087 6.74944 24.2794 6.51694 23.8647C6.28444 23.45 6.19089 22.9717 6.24999 22.5V13.75" stroke="#2D3047" stroke-width="1.5" stroke-linecap="round" stroke-linejoin="round"/>
<path d="M12.5 12.5H12.5125" stroke="#2D3047" stroke-width="1.5" stroke-linecap="round" stroke-linejoin="round"/>
<path d="M17.5 12.5H17.5125" stroke="#2D3047" stroke-width="1.5" stroke-linecap="round" stroke-linejoin="round"/>
<line x1="13.25" y1="16.75" x2="16.75" y2="16.75" stroke="#2D3047" stroke-width="1.5" stroke-linecap="round" stroke-linejoin="round"/>
</svg>
