<svg width="20" height="22" viewBox="0 0 20 22" fill="none" xmlns="http://www.w3.org/2000/svg">
<path d="M1.25 9.75C1.25 7.42935 2.17187 5.20376 3.81281 3.56282C5.45376 1.92187 7.67935 1 10 1C12.3206 1 14.5462 1.92187 16.1872 3.56282C17.8281 5.20376 18.75 7.42935 18.75 9.75V18.5C18.8091 18.9717 18.7156 19.45 18.4831 19.8647C18.2506 20.2794 17.8913 20.6087 17.458 20.8044C17.0247 21.0001 16.5402 21.0518 16.0753 20.9521C15.6105 20.8523 15.1898 20.6062 14.875 20.25C14.6821 20.0032 14.4355 19.8036 14.1539 19.6663C13.8724 19.529 13.5632 19.4576 13.25 19.4576C12.9367 19.4576 12.6276 19.529 12.3461 19.6663C12.0645 19.8036 11.8179 20.0032 11.625 20.25C11.4321 20.4968 11.1855 20.6964 10.9039 20.8337C10.6224 20.971 10.3132 21.0423 10 21.0423C9.68675 21.0423 9.37762 20.971 9.09606 20.8337C8.8145 20.6964 8.56791 20.4968 8.375 20.25C8.18209 20.0032 7.9355 19.8036 7.65394 19.6663C7.37238 19.529 7.06325 19.4576 6.75 19.4576C6.43675 19.4576 6.12762 19.529 5.84606 19.6663C5.5645 19.8036 5.31791 20.0032 5.125 20.25C4.81017 20.6062 4.38951 20.8523 3.92467 20.9521C3.45983 21.0518 2.97525 21.0001 2.54196 20.8044C2.10867 20.6087 1.74944 20.2794 1.51695 19.8647C1.28445 19.45 1.19089 18.9717 1.25 18.5V9.75" stroke="#2C3E50" stroke-width="1.5" stroke-linecap="round" stroke-linejoin="round"/>
</svg>
