<svg width="20" height="20" viewBox="0 0 20 20" fill="none" xmlns="http://www.w3.org/2000/svg">
<path d="M1.05643 11.0933C3.05612 11.331 4.91771 12.2345 6.34166 13.6584C7.7656 15.0824 8.66909 16.944 8.90674 18.9437C9.89803 18.3722 10.7272 17.5574 11.3159 16.5762C11.9046 15.595 12.2334 14.4799 12.2712 13.3363C14.1542 12.6739 15.7986 11.4679 16.9963 9.87094C18.194 8.27397 18.8913 6.3577 19 4.36445C19 3.47214 18.6455 2.61638 18.0146 1.98542C17.3836 1.35447 16.5279 1 15.6356 1C13.6423 1.10868 11.7261 1.80597 10.1291 3.0037C8.53218 4.20143 7.32623 5.8458 6.66379 7.72889C5.52019 7.76666 4.4051 8.09544 3.42393 8.68414C2.44276 9.27285 1.62792 10.102 1.05643 11.0933" stroke="#2D3047" stroke-width="1.5" stroke-linecap="round" stroke-linejoin="round"/>
<path d="M4.42081 12.2147C3.25362 12.8737 2.30981 13.8662 1.71039 15.0651C1.11096 16.2639 0.883233 17.6145 1.05639 18.9436C2.38552 19.1168 3.73607 18.889 4.93492 18.2896C6.13377 17.6902 7.12629 16.7464 7.78523 15.5792" stroke="#2D3047" stroke-width="1.5" stroke-linecap="round" stroke-linejoin="round"/>
<path d="M13.3925 7.72877C14.0119 7.72877 14.514 7.22667 14.514 6.60729C14.514 5.98791 14.0119 5.48581 13.3925 5.48581C12.7732 5.48581 12.2711 5.98791 12.2711 6.60729C12.2711 7.22667 12.7732 7.72877 13.3925 7.72877Z" stroke="#2D3047" stroke-width="1.5" stroke-linecap="round" stroke-linejoin="round"/>
</svg>
